{"title":"[MARATHI] Karti Kalajat Ghusali - Drama x264 MP3 [TMB]","uid":8936420,"size":723936746,"categoryP":"video","categoryS":"movies","magnet":"?xt=urn:btih:e1f2d91ede6c46e7749ac632de509f96c48015ce&amp;dn=%5BMARATHI%5D+Karti+Kalajat+Ghusali+-+Drama+x264+MP3+%5BTMB%5D&amp;tr=udp%3A%2F%2Ftracker.openbittorrent.com%3A80&amp;tr=udp%3A%2F%2Fopen.demonii.com%3A1337&amp;tr=udp%3A%2F%2Ftracker.coppersurfer.tk%3A6969&amp;tr=udp%3A%2F%2Fexodus.desync.com%3A6969","seeders":0,"leechers":1,"uploader":"SJonam","files":2,"time":1379575730,"description":" &lt;a href=&quot;http://i26.photobucket.com/albums/c119/manojb/KartiKalajatGhusali-Dramax264MP3TMBavi_snapshot_012955_20130918_233900.jpg&quot; rel=&quot;nofollow&quot; target=&quot;_NEW&quot;&gt;http://i26.photobucket.com/albums/c119/manojb/KartiKalajatGhusali-Dramax264MP3TMBavi_snapshot_012955_20130918_233900.jpg&lt;/a&gt; &lt;a href=&quot;\nhttp://i26.photobucket.com/albums/c119/manojb/KartiKalajatGhusali-Dramax264MP3TMBavi_snapshot_014916_20130918_234108.jpg&quot; rel=&quot;nofollow&quot; target=&quot;_NEW&quot;&gt;\nhttp://i26.photobucket.com/albums/c119/manojb/KartiKalajatGhusali-Dramax264MP3TMBavi_snapshot_014916_20130918_234108.jpg&lt;/a&gt; &lt;a href=&quot;\nhttp://i26.photobucket.com/albums/c119/manojb/KartiKalajatGhusali-Dramax264MP3TMBavi_snapshot_022036_20130918_233912.jpg&quot; rel=&quot;nofollow&quot; target=&quot;_NEW&quot;&gt;\nhttp://i26.photobucket.com/albums/c119/manojb/KartiKalajatGhusali-Dramax264MP3TMBavi_snapshot_022036_20130918_233912.jpg&lt;/a&gt; &lt;a href=&quot;\nhttp://i26.photobucket.com/albums/c119/manojb/KartiKalajatGhusali-Dramax264MP3TMBavi_snapshot_002644_20130918_233837.jpg&quot; rel=&quot;nofollow&quot; target=&quot;_NEW&quot;&gt;\nhttp://i26.photobucket.com/albums/c119/manojb/KartiKalajatGhusali-Dramax264MP3TMBavi_snapshot_002644_20130918_233837.jpg&lt;/a&gt; &lt;a href=&quot;\nhttp://i26.photobucket.com/albums/c119/manojb/KartiKalajatGhusali-Dramax264MP3TMBavi_snapshot_001640_20130918_233823.jpg&quot; rel=&quot;nofollow&quot; target=&quot;_NEW&quot;&gt;\nhttp://i26.photobucket.com/albums/c119/manojb/KartiKalajatGhusali-Dramax264MP3TMBavi_snapshot_001640_20130918_233823.jpg&lt;/a&gt;\n\nMedia Info -\nGeneral\nComplete name : Karti Kalajat Ghusali - Drama x264 MP3 [TMB].avi\nFormat : AVI\nFormat/Info : Audio Video Interleave\nFile size : 684 MiB\nDuration : 2h 25mn\nOverall bit rate : 659 Kbps\nWriting application : Lavf54.63.104\n\nVideo\nFormat : AVC\nFormat/Info : Advanced Video Codec\nFormat profile : &lt;a class=&quot;__cf_email__&quot; href=&quot;/cdn-cgi/l/email-protection&quot; data-cfemail=&quot;85c8e4ecebc5c9b6abb5&quot;&gt;[email&amp;#160;protected]&lt;/a&gt;&lt;script cf-hash='f9e31' type=&quot;text/javascript&quot;&gt;\n/* &lt;![CDATA[ */!function(){try{var t=&quot;currentScript&quot;in document?document.currentScript:function(){for(var t=document.getElementsByTagName(&quot;script&quot;),e=t.length;e--;)if(t[e].getAttribute(&quot;cf-hash&quot;))return t[e]}();if(t&amp;&amp;t.previousSibling){var e,r,n,i,c=t.previousSibling,a=c.getAttribute(&quot;data-cfemail&quot;);if(a){for(e=&quot;&quot;,r=parseInt(a.substr(0,2),16),n=2;a.length-n;n+=2)i=parseInt(a.substr(n,2),16)^r,e+=String.fromCharCode(i);e=document.createTextNode(e),c.parentNode.replaceChild(e,c)}}}catch(u){}}();/* ]]&gt; */&lt;/script&gt;\nFormat settings, CABAC : Yes\nFormat settings, ReFrames : 1 frame\nCodec ID : H264\nDuration : 2h 25mn\nBit rate : 392 Kbps\nWidth : 632 pixels\nHeight : 472 pixels\nDisplay aspect ratio : 4:3\nFrame rate mode : Variable\nFrame rate : 25.000 fps\nColor space : YUV\nChroma subsampling : 4:2:0\nBit depth : 8 bits\nScan type : Progressive\nBits/(Pixel*Frame) : 0.053\nStream size : 405 MiB (59%)\nWriting library : x264 core 129\n\nAudio\nFormat : MPEG Audio\nFormat version : Version 1\nFormat profile : Layer 3\nMode : Joint stereo\nCodec ID : 55\nCodec ID/Hint : MP3\nDuration : 2h 25mn\nBit rate mode : Constant\nBit rate : 256 Kbps\nChannel count : 2 channels\nSampling rate : 44.1 KHz\nCompression mode : Lossy\nStream size : 266 MiB (39%)\nAlignment : Aligned on interleaves\nInterleave, duration : 26 ms (0.65 video frame)\n\nSample In Torrent &amp; - http://www.multiupload.nl/WHI2TYDAYI\n\nRipper : SaketSaket\n\nSeeding 24x7... Extreme Seeding...\n\n\nEnjoy!","torrent":{"xt":"urn:btih:e1f2d91ede6c46e7749ac632de509f96c48015ce","amp;dn":"%5BMARATHI%5D+Karti+Kalajat+Ghusali+-+Drama+x264+MP3+%5BTMB%5D","amp;tr":["udp%3A%2F%2Ftracker.openbittorrent.com%3A80","udp%3A%2F%2Fopen.demonii.com%3A1337","udp%3A%2F%2Ftracker.coppersurfer.tk%3A6969","udp%3A%2F%2Fexodus.desync.com%3A6969"],"infoHash":"e1f2d91ede6c46e7749ac632de509f96c48015ce","infoHashBuffer":{"type":"Buffer","data":[225,242,217,30,222,108,70,231,116,154,198,50,222,80,159,150,196,128,21,206]},"announce":[],"urlList":[]}}